<svg width="359" height="359" viewBox="0 0 359 359" fill="none" xmlns="http://www.w3.org/2000/svg">
<rect width="359" height="359" fill="#BBBBBB"/>
<g clip-path="url(#clip0_259_2253)">
<path d="M200 150C200 148.896 199.096 147.976 198.008 148.14C191.196 149.168 186.248 156.188 186.008 181.988C186.008 182.517 186.217 183.025 186.591 183.399C186.964 183.774 187.471 183.986 188 183.988C190.24 184.028 192 184.508 192 188V210C192 210.53 192.21 211.039 192.586 211.414C192.961 211.789 193.469 212 194 212H198C198.53 212 199.039 211.789 199.414 211.414C199.789 211.039 200 210.53 200 210V150ZM165 148C165.265 148 165.519 148.105 165.707 148.293C165.894 148.48 166 148.735 166 149V169.488C165.997 169.624 166.047 169.755 166.141 169.854C166.235 169.952 166.364 170.009 166.5 170.012C166.636 170.015 166.767 169.964 166.865 169.871C166.964 169.777 167.021 169.648 167.024 169.512L167.956 148.952C167.968 148.694 168.079 148.452 168.267 148.274C168.454 148.097 168.702 147.999 168.96 148H171.048C171.305 148 171.552 148.098 171.738 148.276C171.925 148.453 172.035 148.695 172.048 148.952L172.98 169.512C172.983 169.648 173.04 169.777 173.138 169.871C173.236 169.964 173.368 170.015 173.504 170.012C173.64 170.009 173.769 169.952 173.862 169.854C173.956 169.755 174.007 169.624 174.004 169.488V149C174.004 148.735 174.109 148.482 174.295 148.294C174.482 148.107 174.735 148.001 175 148H176.16C176.661 148 177.144 148.189 177.513 148.528C177.882 148.867 178.11 149.333 178.152 149.832L179.844 170.112C179.965 171.556 179.618 173.001 178.855 174.233C178.093 175.465 176.954 176.42 175.608 176.956L175.396 177.044C174.692 177.323 174.092 177.813 173.677 178.445C173.262 179.078 173.052 179.824 173.076 180.58L173.88 208C173.88 209.03 173.471 210.018 172.742 210.746C172.014 211.475 171.026 211.884 169.996 211.884C168.966 211.884 167.978 211.475 167.249 210.746C166.521 210.018 166.112 209.03 166.112 208L166.92 180.58C166.944 179.824 166.734 179.078 166.318 178.445C165.903 177.813 165.303 177.323 164.6 177.044L164.388 176.956C163.041 176.42 161.902 175.465 161.139 174.232C160.376 172.998 160.03 171.553 160.152 170.108L161.848 149.832C161.89 149.333 162.118 148.867 162.487 148.528C162.856 148.189 163.339 148 163.84 148H165Z" fill="#484848"/>
</g>
<defs>
<clipPath id="clip0_259_2253">
<rect width="64" height="64" fill="white" transform="translate(148 148)"/>
</clipPath>
</defs>
</svg>
