<svg width="16" height="16" viewBox="0 0 16 16" fill="none" xmlns="http://www.w3.org/2000/svg">
<g clip-path="url(#clip0_25_134)">
<path d="M13 0.500003C13 0.224003 12.774 -0.00599668 12.502 0.0350033C10.799 0.292003 9.56201 2.047 9.50201 8.497C9.50201 8.62926 9.55441 8.75614 9.64775 8.84985C9.74108 8.94356 9.86775 8.99647 10 8.997C10.56 9.007 11 9.127 11 10V15.5C11 15.6326 11.0527 15.7598 11.1465 15.8536C11.2402 15.9473 11.3674 16 11.5 16H12.5C12.6326 16 12.7598 15.9473 12.8536 15.8536C12.9473 15.7598 13 15.6326 13 15.5V0.500003ZM4.25001 3.32209e-06C4.31631 3.32209e-06 4.3799 0.0263425 4.42678 0.0732266C4.47367 0.120111 4.50001 0.183699 4.50001 0.250003V5.372C4.49921 5.40595 4.51193 5.43882 4.53538 5.46339C4.55882 5.48796 4.59106 5.50221 4.62501 5.503C4.65895 5.5038 4.69183 5.49108 4.7164 5.46763C4.74096 5.44419 4.75521 5.41195 4.75601 5.378L4.98901 0.238003C4.9921 0.173628 5.01993 0.112934 5.0667 0.0685878C5.11347 0.0242421 5.17556 -0.000328725 5.24001 3.32209e-06H5.76201C5.82628 -7.07651e-05 5.88812 0.0246149 5.93467 0.0689342C5.98123 0.113254 6.00892 0.173801 6.01201 0.238003L6.24501 5.378C6.2458 5.41195 6.26005 5.44419 6.28462 5.46763C6.30919 5.49108 6.34206 5.5038 6.37601 5.503C6.40995 5.50221 6.4422 5.48796 6.46564 5.46339C6.48908 5.43882 6.5018 5.40595 6.50101 5.372V0.250003C6.50101 0.183872 6.52721 0.120435 6.57388 0.0735792C6.62054 0.0267238 6.68388 0.000267847 6.75001 3.32209e-06H7.04001C7.1653 6.16811e-05 7.28601 0.0471614 7.37824 0.131979C7.47046 0.216796 7.52748 0.333149 7.53801 0.458003L7.96101 5.528C7.99121 5.88904 7.90458 6.25023 7.71391 6.55829C7.52324 6.86636 7.23861 7.10499 6.90201 7.239L6.84901 7.261C6.67316 7.33083 6.52313 7.45318 6.41934 7.61136C6.31555 7.76955 6.26305 7.9559 6.26901 8.145L6.47001 15C6.47001 15.2575 6.36771 15.5045 6.18561 15.6866C6.00351 15.8687 5.75653 15.971 5.49901 15.971C5.24148 15.971 4.9945 15.8687 4.81241 15.6866C4.63031 15.5045 4.52801 15.2575 4.52801 15L4.73001 8.145C4.73596 7.9559 4.68347 7.76955 4.57968 7.61136C4.47589 7.45318 4.32585 7.33083 4.15001 7.261L4.09701 7.239C3.76023 7.10494 3.47548 6.86615 3.28479 6.55788C3.09411 6.24961 3.00759 5.8882 3.03801 5.527L3.46201 0.458003C3.47253 0.333149 3.52955 0.216796 3.62178 0.131979C3.714 0.0471614 3.83471 6.16811e-05 3.96001 3.32209e-06H4.25001Z" fill="#595959"/>
</g>
<defs>
<clipPath id="clip0_25_134">
<rect width="16" height="16" fill="white"/>
</clipPath>
</defs>
</svg>
