<svg width="16" height="16" viewBox="0 0 16 16" fill="none" xmlns="http://www.w3.org/2000/svg">
<path d="M8.70702 1.5C8.51949 1.31253 8.26519 1.20721 8.00002 1.20721C7.73486 1.20721 7.48055 1.31253 7.29302 1.5L0.646021 8.146C0.599533 8.19249 0.562657 8.24768 0.537498 8.30842C0.512339 8.36916 0.49939 8.43426 0.49939 8.5C0.49939 8.56574 0.512339 8.63085 0.537498 8.69158C0.562657 8.75232 0.599533 8.80751 0.646021 8.854C0.739908 8.94789 0.867245 9.00063 1.00002 9.00063C1.06577 9.00063 1.13087 8.98768 1.1916 8.96252C1.25234 8.93737 1.30753 8.90049 1.35402 8.854L2.00002 8.207V13.5C2.00002 13.8978 2.15806 14.2794 2.43936 14.5607C2.72067 14.842 3.1022 15 3.50002 15H12.5C12.8978 15 13.2794 14.842 13.5607 14.5607C13.842 14.2794 14 13.8978 14 13.5V8.207L14.646 8.854C14.7399 8.94789 14.8672 9.00063 15 9.00063C15.1328 9.00063 15.2601 8.94789 15.354 8.854C15.4479 8.76011 15.5007 8.63278 15.5007 8.5C15.5007 8.36723 15.4479 8.23989 15.354 8.146L13 5.793V2.5C13 2.36739 12.9473 2.24022 12.8536 2.14645C12.7598 2.05268 12.6326 2 12.5 2H11.5C11.3674 2 11.2402 2.05268 11.1465 2.14645C11.0527 2.24022 11 2.36739 11 2.5V3.793L8.70702 1.5ZM13 7.207V13.5C13 13.6326 12.9473 13.7598 12.8536 13.8536C12.7598 13.9473 12.6326 14 12.5 14H3.50002C3.36741 14 3.24024 13.9473 3.14647 13.8536C3.0527 13.7598 3.00002 13.6326 3.00002 13.5V7.207L8.00002 2.207L13 7.207Z" fill="#171717"/>
</svg>
