<svg width="16" height="16" viewBox="0 0 16 16" fill="none" xmlns="http://www.w3.org/2000/svg">
<path d="M8.70702 1.5C8.51949 1.31253 8.26519 1.20721 8.00002 1.20721C7.73486 1.20721 7.48055 1.31253 7.29302 1.5L0.646021 8.146C0.599533 8.19249 0.562657 8.24768 0.537498 8.30842C0.512339 8.36916 0.49939 8.43426 0.49939 8.5C0.49939 8.56574 0.512339 8.63085 0.537498 8.69158C0.562657 8.75232 0.599533 8.80751 0.646021 8.854C0.739908 8.94789 0.867245 9.00063 1.00002 9.00063C1.06577 9.00063 1.13087 8.98768 1.1916 8.96252C1.25234 8.93737 1.30753 8.90049 1.35402 8.854L8.00002 2.207L14.646 8.854C14.7399 8.94789 14.8672 9.00063 15 9.00063C15.1328 9.00063 15.2601 8.94789 15.354 8.854C15.4479 8.76011 15.5007 8.63278 15.5007 8.5C15.5007 8.36723 15.4479 8.23989 15.354 8.146L13 5.793V2.5C13 2.36739 12.9473 2.24022 12.8536 2.14645C12.7598 2.05268 12.6326 2 12.5 2H11.5C11.3674 2 11.2402 2.05268 11.1465 2.14645C11.0527 2.24022 11 2.36739 11 2.5V3.793L8.70702 1.5Z" fill="#171717"/>
<path d="M8 3.293L14 9.293V13.5C14 13.8978 13.842 14.2794 13.5607 14.5607C13.2794 14.842 12.8978 15 12.5 15H3.5C3.10218 15 2.72064 14.842 2.43934 14.5607C2.15804 14.2794 2 13.8978 2 13.5V9.293L8 3.293Z" fill="#171717"/>
</svg>
