<svg width="16" height="16" viewBox="0 0 16 16" fill="none" xmlns="http://www.w3.org/2000/svg">
<path fill-rule="evenodd" clip-rule="evenodd" d="M1.49994 12.7273C1.49994 12.5706 1.5622 12.4203 1.67301 12.3095C1.78383 12.1987 1.93413 12.1364 2.09086 12.1364H13.9092C14.0659 12.1364 14.2162 12.1987 14.327 12.3095C14.4378 12.4203 14.5001 12.5706 14.5001 12.7273C14.5001 12.8841 14.4378 13.0344 14.327 13.1452C14.2162 13.256 14.0659 13.3183 13.9092 13.3183H2.09086C1.93413 13.3183 1.78383 13.256 1.67301 13.1452C1.5622 13.0344 1.49994 12.8841 1.49994 12.7273ZM1.49994 8.00001C1.49994 7.84329 1.5622 7.69299 1.67301 7.58217C1.78383 7.47135 1.93413 7.4091 2.09086 7.4091H13.9092C14.0659 7.4091 14.2162 7.47135 14.327 7.58217C14.4378 7.69299 14.5001 7.84329 14.5001 8.00001C14.5001 8.15673 14.4378 8.30704 14.327 8.41785C14.2162 8.52867 14.0659 8.59093 13.9092 8.59093H2.09086C1.93413 8.59093 1.78383 8.52867 1.67301 8.41785C1.5622 8.30704 1.49994 8.15673 1.49994 8.00001ZM1.49994 3.27268C1.49994 3.11596 1.5622 2.96566 1.67301 2.85484C1.78383 2.74402 1.93413 2.68176 2.09086 2.68176H13.9092C14.0659 2.68176 14.2162 2.74402 14.327 2.85484C14.4378 2.96566 14.5001 3.11596 14.5001 3.27268C14.5001 3.4294 14.4378 3.5797 14.327 3.69052C14.2162 3.80134 14.0659 3.8636 13.9092 3.8636H2.09086C1.93413 3.8636 1.78383 3.80134 1.67301 3.69052C1.5622 3.5797 1.49994 3.4294 1.49994 3.27268Z" fill="#F1F1F1"/>
</svg>
