<svg width="16" height="16" viewBox="0 0 16 16" fill="none" xmlns="http://www.w3.org/2000/svg">
<path d="M6.49999 0C6.36738 0 6.24021 0.0526784 6.14644 0.146447C6.05267 0.240215 5.99999 0.367392 5.99999 0.5C5.99999 0.632608 6.05267 0.759785 6.14644 0.853553C6.24021 0.947322 6.36738 1 6.49999 1H6.99999V2.07C5.24844 2.32316 3.65776 3.23027 2.54799 4.60883C1.43822 5.98739 0.89172 7.73509 1.01844 9.50029C1.14516 11.2655 1.9357 12.9172 3.231 14.1231C4.5263 15.329 6.23024 15.9996 7.99999 16C9.3419 15.9999 10.6555 15.6142 11.7844 14.8887C12.9132 14.1632 13.8098 13.1284 14.3672 11.9078C14.9246 10.6871 15.1194 9.332 14.9285 8.00375C14.7375 6.67551 14.1687 5.43015 13.29 4.416L13.303 4.404L13.657 4.05L14.01 4.404C14.0561 4.45175 14.1113 4.48985 14.1723 4.51605C14.2333 4.54226 14.2989 4.55605 14.3653 4.55663C14.4317 4.5572 14.4975 4.54455 14.559 4.51941C14.6204 4.49427 14.6762 4.45714 14.7232 4.4102C14.7701 4.36325 14.8073 4.30743 14.8324 4.24598C14.8575 4.18453 14.8702 4.11869 14.8696 4.0523C14.869 3.98591 14.8552 3.9203 14.829 3.8593C14.8028 3.7983 14.7647 3.74312 14.717 3.697L13.303 2.282C13.2569 2.23424 13.2017 2.19615 13.1407 2.16995C13.0797 2.14374 13.0141 2.12995 12.9477 2.12937C12.8813 2.1288 12.8155 2.14145 12.754 2.16659C12.6926 2.19173 12.6367 2.22886 12.5898 2.2758C12.5428 2.32275 12.5057 2.37857 12.4806 2.44002C12.4554 2.50147 12.4428 2.56731 12.4434 2.6337C12.4439 2.70009 12.4577 2.7657 12.4839 2.8267C12.5101 2.8877 12.5482 2.94288 12.596 2.989L12.95 3.343L12.596 3.697L12.584 3.709C11.5718 2.82963 10.3273 2.26089 8.99999 2.071V1H9.49999C9.6326 1 9.75978 0.947322 9.85355 0.853553C9.94731 0.759785 9.99999 0.632608 9.99999 0.5C9.99999 0.367392 9.94731 0.240215 9.85355 0.146447C9.75978 0.0526784 9.6326 0 9.49999 0L6.49999 0ZM8.49999 5.6V9C8.49999 9.13261 8.44731 9.25979 8.35355 9.35355C8.25978 9.44732 8.1326 9.5 7.99999 9.5H4.49999C4.36738 9.5 4.24021 9.44732 4.14644 9.35355C4.05267 9.25979 3.99999 9.13261 3.99999 9C3.99999 8.86739 4.05267 8.74021 4.14644 8.64645C4.24021 8.55268 4.36738 8.5 4.49999 8.5H7.49999V5.6C7.49999 5.46739 7.55267 5.34021 7.64644 5.24645C7.74021 5.15268 7.86738 5.1 7.99999 5.1C8.1326 5.1 8.25978 5.15268 8.35355 5.24645C8.44731 5.34021 8.49999 5.46739 8.49999 5.6Z" fill="#FF7F00"/>
</svg>
